<svg width="29" height="28" viewBox="0 0 29 28" fill="none" xmlns="http://www.w3.org/2000/svg">
<rect width="29" height="28" fill="#F5F5F5"/>
<g id="Final" clip-path="url(#clip0_128_539)">
<rect width="1440" height="7843" transform="translate(-705 -7744)" fill="#F5F5F5"/>
<g id="footer">
<rect id="Rectangle 22" x="-704.5" y="-180.5" width="1439" height="279" fill="#3B4674" stroke="#3B4674"/>
<rect id="Rectangle 1608" x="735" y="99" width="1440" height="82.0001" transform="rotate(180 735 99)" fill="url(#paint0_linear_128_539)" fill-opacity="0.5"/>
<g id="Group 84">
<path id="icon" d="M19.0312 14C19.0312 15.1603 18.5539 16.2731 17.7041 17.0936C16.8543 17.9141 15.7018 18.375 14.5 18.375C13.2982 18.375 12.1457 17.9141 11.2959 17.0936C10.4461 16.2731 9.96875 15.1603 9.96875 14C9.96875 13.7506 9.99594 13.5071 10.0428 13.2708H8.45833V19.0998C8.45833 19.5052 8.79818 19.8333 9.21807 19.8333H19.7834C19.9847 19.8329 20.1775 19.7555 20.3197 19.618C20.4618 19.4804 20.5417 19.2941 20.5417 19.0998V13.2708H18.9572C19.0041 13.5071 19.0312 13.7506 19.0312 14ZM14.5 16.9167C14.8968 16.9166 15.2897 16.841 15.6563 16.6943C16.0228 16.5476 16.3559 16.3326 16.6364 16.0617C16.9169 15.7907 17.1394 15.469 17.2911 15.115C17.4429 14.761 17.5209 14.3817 17.5208 13.9985C17.5207 13.6154 17.4425 13.2361 17.2905 12.8822C17.1386 12.5282 16.9159 12.2067 16.6353 11.9358C16.3546 11.665 16.0215 11.4502 15.6549 11.3037C15.2882 11.1571 14.8953 11.0818 14.4985 11.0819C13.6971 11.0821 12.9286 11.3896 12.3621 11.9369C11.7956 12.4841 11.4775 13.2263 11.4777 14C11.4779 14.7737 11.7964 15.5157 12.3632 16.0627C12.93 16.6097 13.6986 16.9169 14.5 16.9167ZM18.125 10.9375H19.936C20.0563 10.9375 20.1717 10.8915 20.2569 10.8094C20.3421 10.7274 20.3902 10.6162 20.3906 10.5V8.75146C20.3906 8.63504 20.3427 8.52339 20.2575 8.44107C20.1722 8.35875 20.0566 8.3125 19.936 8.3125H18.125C18.0044 8.3125 17.8888 8.35875 17.8035 8.44107C17.7183 8.52339 17.6704 8.63504 17.6704 8.75146V10.5C17.6719 10.7406 17.8758 10.9375 18.125 10.9375ZM14.5 0C10.6544 0 6.96623 1.475 4.24695 4.1005C1.52767 6.72601 0 10.287 0 14C0 17.713 1.52767 21.274 4.24695 23.8995C6.96623 26.525 10.6544 28 14.5 28C16.4042 28 18.2897 27.6379 20.0489 26.9343C21.8081 26.2307 23.4066 25.1995 24.753 23.8995C26.0995 22.5995 27.1676 21.0561 27.8963 19.3576C28.6249 17.659 29 15.8385 29 14C29 12.1615 28.6249 10.341 27.8963 8.64243C27.1676 6.94387 26.0995 5.40052 24.753 4.1005C23.4066 2.80048 21.8081 1.76925 20.0489 1.06569C18.2897 0.362121 16.4042 0 14.5 0ZM22.0521 19.6715C22.0521 20.5625 21.2969 21.2917 20.374 21.2917H8.62599C7.70312 21.2917 6.94792 20.5625 6.94792 19.6715V8.32854C6.94792 7.4375 7.70312 6.70833 8.62599 6.70833H20.374C21.2969 6.70833 22.0521 7.4375 22.0521 8.32854V19.6715Z" fill="#F5F5F5"/>
</g>
</g>
</g>
<defs>
<linearGradient id="paint0_linear_128_539" x1="1455" y1="99" x2="1455" y2="181" gradientUnits="userSpaceOnUse">
<stop/>
<stop offset="1" stop-opacity="0"/>
</linearGradient>
<clipPath id="clip0_128_539">
<rect width="1440" height="7843" fill="white" transform="translate(-705 -7744)"/>
</clipPath>
</defs>
</svg>
