<svg width="86" height="31" viewBox="0 0 86 31" fill="none" xmlns="http://www.w3.org/2000/svg">
<path d="M8.75391 6.9375V24H5.83594V6.9375H8.75391ZM14.1094 6.9375V9.28125H0.527344V6.9375H14.1094ZM19.1016 11.3203V24H16.2656V11.3203H19.1016ZM16.0781 7.99219C16.0781 7.5625 16.2188 7.20703 16.5 6.92578C16.7891 6.63672 17.1875 6.49219 17.6953 6.49219C18.1953 6.49219 18.5898 6.63672 18.8789 6.92578C19.168 7.20703 19.3125 7.5625 19.3125 7.99219C19.3125 8.41406 19.168 8.76562 18.8789 9.04688C18.5898 9.32812 18.1953 9.46875 17.6953 9.46875C17.1875 9.46875 16.7891 9.32812 16.5 9.04688C16.2188 8.76562 16.0781 8.41406 16.0781 7.99219ZM30.3164 11.3203H32.8828V23.6484C32.8828 24.7891 32.6406 25.7578 32.1562 26.5547C31.6719 27.3516 30.9961 27.957 30.1289 28.3711C29.2617 28.793 28.2578 29.0039 27.1172 29.0039C26.6328 29.0039 26.0938 28.9336 25.5 28.793C24.9141 28.6523 24.3438 28.4258 23.7891 28.1133C23.2422 27.8086 22.7852 27.4062 22.418 26.9062L23.7422 25.2422C24.1953 25.7812 24.6953 26.1758 25.2422 26.4258C25.7891 26.6758 26.3633 26.8008 26.9648 26.8008C27.6133 26.8008 28.1641 26.6797 28.6172 26.4375C29.0781 26.2031 29.4336 25.8555 29.6836 25.3945C29.9336 24.9336 30.0586 24.3711 30.0586 23.707V14.1914L30.3164 11.3203ZM21.7031 17.8008V17.5547C21.7031 16.5938 21.8203 15.7188 22.0547 14.9297C22.2891 14.1328 22.625 13.4492 23.0625 12.8789C23.5 12.3008 24.0312 11.8594 24.6562 11.5547C25.2812 11.2422 25.9883 11.0859 26.7773 11.0859C27.5977 11.0859 28.2969 11.2344 28.875 11.5312C29.4609 11.8281 29.9492 12.2539 30.3398 12.8086C30.7305 13.3555 31.0352 14.0117 31.2539 14.7773C31.4805 15.5352 31.6484 16.3789 31.7578 17.3086V18.0938C31.6562 19 31.4844 19.8281 31.2422 20.5781C31 21.3281 30.6797 21.9766 30.2812 22.5234C29.8828 23.0703 29.3906 23.4922 28.8047 23.7891C28.2266 24.0859 27.543 24.2344 26.7539 24.2344C25.9805 24.2344 25.2812 24.0742 24.6562 23.7539C24.0391 23.4336 23.5078 22.9844 23.0625 22.4062C22.625 21.8281 22.2891 21.1484 22.0547 20.3672C21.8203 19.5781 21.7031 18.7227 21.7031 17.8008ZM24.5273 17.5547V17.8008C24.5273 18.3789 24.582 18.918 24.6914 19.418C24.8086 19.918 24.9844 20.3594 25.2188 20.7422C25.4609 21.1172 25.7656 21.4141 26.1328 21.6328C26.5078 21.8438 26.9492 21.9492 27.457 21.9492C28.1211 21.9492 28.6641 21.8086 29.0859 21.5273C29.5156 21.2461 29.8438 20.8672 30.0703 20.3906C30.3047 19.9062 30.4688 19.3672 30.5625 18.7734V16.6523C30.5156 16.1914 30.418 15.7617 30.2695 15.3633C30.1289 14.9648 29.9375 14.6172 29.6953 14.3203C29.4531 14.0156 29.1484 13.7812 28.7812 13.6172C28.4141 13.4453 27.9805 13.3594 27.4805 13.3594C26.9727 13.3594 26.5312 13.4688 26.1562 13.6875C25.7812 13.9062 25.4727 14.207 25.2305 14.5898C24.9961 14.9727 24.8203 15.418 24.7031 15.9258C24.5859 16.4336 24.5273 16.9766 24.5273 17.5547ZM38.6484 13.7344V24H35.8242V11.3203H38.5195L38.6484 13.7344ZM42.5273 11.2383L42.5039 13.8633C42.332 13.832 42.1445 13.8086 41.9414 13.793C41.7461 13.7773 41.5508 13.7695 41.3555 13.7695C40.8711 13.7695 40.4453 13.8398 40.0781 13.9805C39.7109 14.1133 39.4023 14.3086 39.1523 14.5664C38.9102 14.8164 38.7227 15.1211 38.5898 15.4805C38.457 15.8398 38.3789 16.2422 38.3555 16.6875L37.7109 16.7344C37.7109 15.9375 37.7891 15.1992 37.9453 14.5195C38.1016 13.8398 38.3359 13.2422 38.6484 12.7266C38.9688 12.2109 39.3672 11.8086 39.8438 11.5195C40.3281 11.2305 40.8867 11.0859 41.5195 11.0859C41.6914 11.0859 41.875 11.1016 42.0703 11.1328C42.2734 11.1641 42.4258 11.1992 42.5273 11.2383ZM51.0234 21.457V15.4102C51.0234 14.957 50.9414 14.5664 50.7773 14.2383C50.6133 13.9102 50.3633 13.6562 50.0273 13.4766C49.6992 13.2969 49.2852 13.207 48.7852 13.207C48.3242 13.207 47.9258 13.2852 47.5898 13.4414C47.2539 13.5977 46.9922 13.8086 46.8047 14.0742C46.6172 14.3398 46.5234 14.6406 46.5234 14.9766H43.7109C43.7109 14.4766 43.832 13.9922 44.0742 13.5234C44.3164 13.0547 44.668 12.6367 45.1289 12.2695C45.5898 11.9023 46.1406 11.6133 46.7812 11.4023C47.4219 11.1914 48.1406 11.0859 48.9375 11.0859C49.8906 11.0859 50.7344 11.2461 51.4688 11.5664C52.2109 11.8867 52.793 12.3711 53.2148 13.0195C53.6445 13.6602 53.8594 14.4648 53.8594 15.4336V21.0703C53.8594 21.6484 53.8984 22.168 53.9766 22.6289C54.0625 23.082 54.1836 23.4766 54.3398 23.8125V24H51.4453C51.3125 23.6953 51.207 23.3086 51.1289 22.8398C51.0586 22.3633 51.0234 21.9023 51.0234 21.457ZM51.4336 16.2891L51.457 18.0352H49.4297C48.9062 18.0352 48.4453 18.0859 48.0469 18.1875C47.6484 18.2812 47.3164 18.4219 47.0508 18.6094C46.7852 18.7969 46.5859 19.0234 46.4531 19.2891C46.3203 19.5547 46.2539 19.8555 46.2539 20.1914C46.2539 20.5273 46.332 20.8359 46.4883 21.1172C46.6445 21.3906 46.8711 21.6055 47.168 21.7617C47.4727 21.918 47.8398 21.9961 48.2695 21.9961C48.8477 21.9961 49.3516 21.8789 49.7812 21.6445C50.2188 21.4023 50.5625 21.1094 50.8125 20.7656C51.0625 20.4141 51.1953 20.082 51.2109 19.7695L52.125 21.0234C52.0312 21.3438 51.8711 21.6875 51.6445 22.0547C51.418 22.4219 51.1211 22.7734 50.7539 23.1094C50.3945 23.4375 49.9609 23.707 49.4531 23.918C48.9531 24.1289 48.375 24.2344 47.7188 24.2344C46.8906 24.2344 46.1523 24.0703 45.5039 23.7422C44.8555 23.4062 44.3477 22.957 43.9805 22.3945C43.6133 21.8242 43.4297 21.1797 43.4297 20.4609C43.4297 19.7891 43.5547 19.1953 43.8047 18.6797C44.0625 18.1562 44.4375 17.7188 44.9297 17.3672C45.4297 17.0156 46.0391 16.75 46.7578 16.5703C47.4766 16.3828 48.2969 16.2891 49.2188 16.2891H51.4336ZM70.6289 6.9375V24H67.6875L60.0352 11.7773V24H57.0938V6.9375H60.0352L67.7109 19.1836V6.9375H70.6289ZM81 21.457V15.4102C81 14.957 80.918 14.5664 80.7539 14.2383C80.5898 13.9102 80.3398 13.6562 80.0039 13.4766C79.6758 13.2969 79.2617 13.207 78.7617 13.207C78.3008 13.207 77.9023 13.2852 77.5664 13.4414C77.2305 13.5977 76.9688 13.8086 76.7812 14.0742C76.5938 14.3398 76.5 14.6406 76.5 14.9766H73.6875C73.6875 14.4766 73.8086 13.9922 74.0508 13.5234C74.293 13.0547 74.6445 12.6367 75.1055 12.2695C75.5664 11.9023 76.1172 11.6133 76.7578 11.4023C77.3984 11.1914 78.1172 11.0859 78.9141 11.0859C79.8672 11.0859 80.7109 11.2461 81.4453 11.5664C82.1875 11.8867 82.7695 12.3711 83.1914 13.0195C83.6211 13.6602 83.8359 14.4648 83.8359 15.4336V21.0703C83.8359 21.6484 83.875 22.168 83.9531 22.6289C84.0391 23.082 84.1602 23.4766 84.3164 23.8125V24H81.4219C81.2891 23.6953 81.1836 23.3086 81.1055 22.8398C81.0352 22.3633 81 21.9023 81 21.457ZM81.4102 16.2891L81.4336 18.0352H79.4062C78.8828 18.0352 78.4219 18.0859 78.0234 18.1875C77.625 18.2812 77.293 18.4219 77.0273 18.6094C76.7617 18.7969 76.5625 19.0234 76.4297 19.2891C76.2969 19.5547 76.2305 19.8555 76.2305 20.1914C76.2305 20.5273 76.3086 20.8359 76.4648 21.1172C76.6211 21.3906 76.8477 21.6055 77.1445 21.7617C77.4492 21.918 77.8164 21.9961 78.2461 21.9961C78.8242 21.9961 79.3281 21.8789 79.7578 21.6445C80.1953 21.4023 80.5391 21.1094 80.7891 20.7656C81.0391 20.4141 81.1719 20.082 81.1875 19.7695L82.1016 21.0234C82.0078 21.3438 81.8477 21.6875 81.6211 22.0547C81.3945 22.4219 81.0977 22.7734 80.7305 23.1094C80.3711 23.4375 79.9375 23.707 79.4297 23.918C78.9297 24.1289 78.3516 24.2344 77.6953 24.2344C76.8672 24.2344 76.1289 24.0703 75.4805 23.7422C74.832 23.4062 74.3242 22.957 73.957 22.3945C73.5898 21.8242 73.4062 21.1797 73.4062 20.4609C73.4062 19.7891 73.5312 19.1953 73.7812 18.6797C74.0391 18.1562 74.4141 17.7188 74.9062 17.3672C75.4062 17.0156 76.0156 16.75 76.7344 16.5703C77.4531 16.3828 78.2734 16.2891 79.1953 16.2891H81.4102Z" fill="#F5F5F5"/>
</svg>
